#!OML:ASF X:\für Bonn\!DataBase\2005_08_11_Bastian_Final\c3d\Bastian.ASF
:FULLY-SPECIFIED
:DEGREES
256
root 0.704027 17.1343 2.07788 162.017 -26.5212 -169.559
lowerback 11.4331 -3.23112 9.08842
upperback 6.14629 -4.17325 3.40481
thorax -0.23857 -2.28665 -1.04063
lowerneck -1.32471 -11.5238 -1.32293
upperneck -10.9804 -15.3677 12.7357
head -2.14213 -8.30531 4.53068
rclavicle -6.99474e-014 3.77691e-014
rhumerus -51.4161 -6.69135 -75.2329
rradius 43.6582
rwrist -271.487
rhand 7.35698 -9.92932
rfingers 7.12502
rthumb 32.6154 -397.01
lclavicle -6.99474e-014 3.77691e-014
lhumerus 313.737 22.5248 -296.116
lradius 34.5909
lwrist -161.18
lhand -20.5779 13.0794
lfingers 7.12502
lthumb 5.78189 42.9805
rfemur -13.1238 4.34298 32.3396
rtibia 38.5687
rfoot -7.55956 2.44871
rtoes -1.8404
lfemur 22.1393 -6.89668 -8.51547
ltibia 28.4309
lfoot -15.8796 -9.10577
ltoes -23.8874
257
root 0.7317 17.1205 2.16851 162.433 -25.7261 -169.706
lowerback 11.4952 -3.22472 8.83029
upperback 6.19249 -4.19549 3.38299
thorax -0.213505 -2.30501 -0.917333
lowerneck -1.65825 -11.3167 -1.15568
upperneck -10.9286 -15.1207 12.6099
head -2.10759 -8.18378 4.43639
rclavicle -6.48535e-014 4.09496e-014
rhumerus -51.315 -6.35997 -74.962
rradius 42.452
rwrist -272.498
rhand 7.15348 -9.33737
rfingers 7.12502
rthumb 32.4218 -396.458
lclavicle -6.48535e-014 4.09496e-014
lhumerus 312.395 23.9819 -298.392
lradius 32.3565
lwrist -161.744
lhand -20.441 12.9141
lfingers 7.12502
lthumb 5.91404 42.8116
rfemur -13.8009 4.94437 32.3147
rtibia 38.6134
rfoot -7.16348 2.81391
rtoes -1.85878
lfemur 22.465 -6.88493 -8.84267
ltibia 27.13
lfoot -16.4197 -8.86711
ltoes -23.8014
258
root 0.759631 17.1213 2.26562 162.854 -24.9501 -169.84
lowerback 11.5948 -3.21039 8.60443
upperback 6.23778 -4.20008 3.35219
thorax -0.210373 -2.31472 -0.820676
lowerneck -1.97608 -11.1171 -0.947737
upperneck -10.9425 -14.8851 12.498
head -2.09853 -8.07454 4.3464
rclavicle 8.57259e-015 -1.86858e-014
rhumerus -51.1799 -6.00355 -74.7682
rradius 41.3427
rwrist -273.262
rhand 6.98469 -8.95701
rfingers 7.12502
rthumb 32.2611 -396.11
lclavicle 8.57259e-015 -1.86858e-014
lhumerus 311.136 25.4284 -300.761
lradius 30.3337
lwrist -163.047
lhand -20.6605 12.3994
lfingers 7.12502
lthumb 5.7021 42.3027
rfemur -14.4679 5.42212 32.2709
rtibia 38.6077
rfoot -6.87181 3.29262
rtoes -2.46601
lfemur 22.6703 -6.81412 -9.1276
ltibia 25.9213
lfoot -16.8186 -8.64565
ltoes -23.4688
259
root 0.788777 17.1094 2.37073 163.289 -24.1915 -170.015
lowerback 11.7455 -3.20155 8.33055
upperback 6.27456 -4.20904 3.30594
thorax -0.242955 -2.32808 -0.709329
lowerneck -2.26532 -10.9027 -0.696423
upperneck -10.9926 -14.6312 12.3619
head -2.11251 -7.95997 4.2471
rclavicle 6.26172e-014 -7.63333e-014
rhumerus -51.0237 -5.56435 -74.6394
rradius 40.3298
rwrist -273.713
rhand 6.88017 -8.7206
rfingers 7.12502
rthumb 32.1616 -395.894
lclavicle 6.26172e-014 -7.63333e-014
lhumerus 309.831 26.7932 -303.186
lradius 28.5938
lwrist -164.951
lhand -21.1519 11.6022
lfingers 7.12502
lthumb 5.22765 41.5177
rfemur -15.1683 5.89428 32.1652
rtibia 38.5995
rfoot -6.64608 3.67672
rtoes -3.6326
lfemur 22.7679 -6.69283 -9.43802
ltibia 24.8629
lfoot -17.1679 -8.397
ltoes -22.9566
260
root 0.817587 17.1003 2.48294 163.715 -23.4369 -170.213
lowerback 11.9959 -3.19671 8.03712
upperback 6.29588 -4.21461 3.26175
thorax -0.343946 -2.34286 -0.578054
lowerneck -2.54873 -10.6856 -0.493792
upperneck -11.0411 -14.3745 12.2485
head -2.12064 -7.84341 4.16376
rclavicle -1.98536e-014 -6.91771e-014
rhumerus -50.8394 -5.05371 -74.5212
rradius 39.4417
rwrist -273.984
rhand 6.87392 -8.5419
rfingers 7.12502
rthumb 32.1557 -395.716
lclavicle -1.98536e-014 -6.91771e-014
lhumerus 308.433 28.3357 -305.812
lradius 27.056
lwrist -167.704
lhand -21.9035 10.5762
lfingers 7.12502
lthumb 4.50196 40.5084
rfemur -15.842 6.24743 32.019
rtibia 38.5404
rfoot -6.41588 4.05759
rtoes -5.19253
lfemur 22.7825 -6.50865 -9.76087
ltibia 23.9277
lfoot -17.4574 -8.1369
ltoes -22.3203
261
root 0.846937 17.0925 2.60087 164.117 -22.7028 -170.407
lowerback 12.3008 -3.19075 7.75758
upperback 6.31957 -4.21381 3.19765
thorax -0.473159 -2.35455 -0.472171
lowerneck -2.82153 -10.4708 -0.248308
upperneck -11.1288 -14.1245 12.1522
head -2.14441 -7.73621 4.08281
rclavicle -5.62561e-014 -2.38542e-014
rhumerus -50.6341 -4.50269 -74.4669
rradius 38.6888
rwrist -274.109
rhand 6.98644 -8.41556
rfingers 7.12502
rthumb 32.2628 -395.568
lclavicle -5.62561e-014 -2.38542e-014
lhumerus 306.915 29.9491 -308.644
lradius 25.7937
lwrist -171.16
lhand -22.9101 9.38627
lfingers 7.12502
lthumb 3.52995 39.3368
rfemur -16.5027 6.53913 31.8578
rtibia 38.4789
rfoot -6.23964 4.49467
rtoes -6.65272
lfemur 22.6748 -6.27005 -10.0519
ltibia 23.2032
lfoot -17.7711 -7.85835
ltoes -21.495
262
root 0.876205 17.088 2.72312 164.527 -21.9617 -170.625
lowerback 12.6423 -3.17274 7.46057
upperback 6.33285 -4.1955 3.12664
thorax -0.631282 -2.35794 -0.36323
lowerneck -3.07738 -10.2606 -0.0326993
upperneck -11.2243 -13.8812 12.0814
head -2.1684 -7.63346 4.0169
rclavicle -6.13748e-015 9.54166e-015
rhumerus -50.4423 -4.00173 -74.3849
rradius 38.0931
rwrist -274.022
rhand 7.2004 -8.25092
rfingers 7.12502
rthumb 32.4664 -395.362
lclavicle -6.13748e-015 9.54166e-015
lhumerus 305.221 31.6889 -311.714
lradius 24.7357
lwrist -175.337
lhand -24.0079 8.2797
lfingers 7.12502
lthumb 2.46977 38.2451
rfemur -17.1543 6.84973 31.6583
rtibia 38.3489
rfoot -6.05709 4.9138
rtoes -7.98198
lfemur 22.4834 -5.95296 -10.3473
ltibia 22.5992
lfoot -18.115 -7.51266
ltoes -20.6952
